<svg width="1440" height="376" viewBox="0 0 1440 376" fill="none" xmlns="http://www.w3.org/2000/svg">
<path opacity="0.04" d="M-4.3948 42.3515H59.2744C75.2264 42.3515 87.5718 45.4725 96.3107 51.7146C105.188 57.818 109.627 66.973 109.627 79.1798C109.627 95.4092 102.275 106.021 87.5718 111.014C95.6172 113.372 102.275 117.534 107.546 123.499C112.818 129.324 115.453 137.231 115.453 147.218C115.453 155.125 113.719 161.922 110.251 167.609C106.784 173.158 102.067 177.319 96.1027 180.093C90.2767 182.868 84.2427 184.879 78.0006 186.127C71.8973 187.376 65.3084 188 58.2341 188H-4.3948V42.3515ZM84.2427 143.889C84.2427 131.405 75.9893 125.163 59.4825 125.163H26.6075V162.616H57.8179C66.002 162.616 72.4521 161.298 77.1684 158.662C81.8846 156.027 84.2427 151.102 84.2427 143.889ZM78.6248 84.5896C78.6248 73.4925 71.2731 67.944 56.5695 67.944H26.8156V101.235H58.2341C64.3374 101.235 69.2617 99.848 73.007 97.0737C76.7522 94.1608 78.6248 89.9994 78.6248 84.5896ZM187.138 188H132.208V42.3515H163.418V90.2074H187.138C229.029 90.4849 249.975 106.784 249.975 139.104C249.975 171.701 229.029 188 187.138 188ZM163.418 117.673V160.535H188.594C208.292 160.535 218.14 153.391 218.14 139.104C218.14 124.816 208.292 117.673 188.594 117.673H163.418ZM293.045 188H261.835V42.3515H293.045V188ZM349.193 96.4495H381.236C388.865 96.4495 395.8 97.2124 402.043 98.7383C408.423 100.125 414.319 102.484 419.728 105.813C425.138 109.003 429.369 113.719 432.421 119.961C435.472 126.203 436.998 133.625 436.998 142.225C436.998 172.742 418.411 188 381.236 188H317.983V42.3515H425.138V70.4409H349.193V96.4495ZM349.193 160.535H381.444C388.795 160.535 394.552 159.286 398.713 156.79C403.014 154.154 405.164 149.299 405.164 142.225C405.164 135.15 403.014 130.365 398.713 127.868C394.552 125.232 388.795 123.915 381.444 123.915H349.193V160.535ZM452.147 42.3515H554.725V69.8166H483.357V100.819H548.483V128.076H483.357V160.535H555.973V188H452.147V42.3515ZM574.322 42.3515H629.253C671.144 42.3515 692.089 58.6503 692.089 91.2478C692.089 123.845 671.144 140.144 629.253 140.144H605.533V188H574.322V42.3515ZM630.709 112.679C650.406 112.679 660.255 105.535 660.255 91.2478C660.255 76.9604 650.406 69.8166 630.709 69.8166H605.533V112.679H630.709ZM834.615 188H803.405V112.887C803.405 105.535 803.613 98.877 804.029 92.9123L736.199 188H706.861V42.3515H738.071V117.465C738.071 124.816 737.863 131.475 737.447 137.439L805.278 42.3515H834.615V188ZM891.283 116.84C891.283 104.079 893.503 92.6349 897.941 82.5089C902.519 72.2441 908.484 64.0601 915.835 57.9567C923.326 51.8533 931.649 47.2758 940.804 44.2241C949.959 41.0337 959.53 39.4385 969.517 39.4385C984.776 39.4385 998.647 42.5596 1011.13 48.8016V78.5556C1001.28 70.9263 989.145 67.1117 974.719 67.1117C960.57 67.1117 948.433 71.3425 938.307 79.804C928.32 88.1267 923.326 100.472 923.326 116.84C923.326 124.608 924.782 131.544 927.695 137.647C930.608 143.612 934.492 148.397 939.347 152.004C944.341 155.611 949.82 158.385 955.785 160.327C961.888 162.13 968.2 163.032 974.719 163.032C990.81 163.032 1003.29 159.009 1012.17 150.964V181.55C999.271 187.792 985.192 190.913 969.933 190.913C959.946 190.913 950.375 189.387 941.22 186.335C932.065 183.284 923.673 178.845 916.044 173.019C908.553 167.193 902.519 159.425 897.941 149.715C893.503 140.005 891.283 129.047 891.283 116.84ZM1029.3 42.3515H1092.96C1108.92 42.3515 1121.26 45.4725 1130 51.7146C1138.88 57.818 1143.32 66.973 1143.32 79.1798C1143.32 95.4092 1135.97 106.021 1121.26 111.014C1129.31 113.372 1135.97 117.534 1141.24 123.499C1146.51 129.324 1149.14 137.231 1149.14 147.218C1149.14 155.125 1147.41 161.922 1143.94 167.609C1140.47 173.158 1135.76 177.319 1129.79 180.093C1123.97 182.868 1117.93 184.879 1111.69 186.127C1105.59 187.376 1099 188 1091.92 188H1029.3V42.3515ZM1117.93 143.889C1117.93 131.405 1109.68 125.163 1093.17 125.163H1060.3V162.616H1091.51C1099.69 162.616 1106.14 161.298 1110.86 158.662C1115.57 156.027 1117.93 151.102 1117.93 143.889ZM1112.31 84.5896C1112.31 73.4925 1104.96 67.944 1090.26 67.944H1060.51V101.235H1091.92C1098.03 101.235 1102.95 99.848 1106.7 97.0737C1110.44 94.1608 1112.31 89.9994 1112.31 84.5896ZM1162.57 143.681C1159.38 134.665 1157.78 125.163 1157.78 115.176C1157.78 105.188 1159.38 95.6866 1162.57 86.6703C1165.9 77.6539 1170.68 69.6086 1176.92 62.5342C1183.31 55.4599 1191.49 49.842 1201.48 45.6806C1211.46 41.5192 1222.7 39.4385 1235.18 39.4385C1247.67 39.4385 1258.9 41.5192 1268.89 45.6806C1278.88 49.842 1286.99 55.4599 1293.24 62.5342C1299.62 69.6086 1304.4 77.6539 1307.59 86.6703C1310.92 95.6866 1312.59 105.188 1312.59 115.176C1312.59 125.163 1310.92 134.665 1307.59 143.681C1304.4 152.698 1299.62 160.743 1293.24 167.817C1286.99 174.892 1278.88 180.51 1268.89 184.671C1258.9 188.832 1247.67 190.913 1235.18 190.913C1222.7 190.913 1211.46 188.832 1201.48 184.671C1191.49 180.51 1183.31 174.892 1176.92 167.817C1170.68 160.743 1165.9 152.698 1162.57 143.681ZM1268.68 148.675C1276.59 139.797 1280.54 128.631 1280.54 115.176C1280.54 101.721 1276.59 90.5542 1268.68 81.6766C1260.78 72.799 1249.61 68.3602 1235.18 68.3602C1220.62 68.3602 1209.38 72.799 1201.48 81.6766C1193.57 90.5542 1189.62 101.721 1189.62 115.176C1189.62 128.631 1193.57 139.797 1201.48 148.675C1209.38 157.553 1220.62 161.991 1235.18 161.991C1249.61 161.991 1260.78 157.553 1268.68 148.675ZM1426.07 188H1457.28V42.3515H1427.94L1360.11 137.439C1360.53 131.336 1360.73 124.678 1360.73 117.465V42.3515H1329.52V188H1358.86L1426.69 92.9123C1426.28 98.877 1426.07 105.535 1426.07 112.887V188ZM1426.07 22.793C1417.19 29.0351 1406.3 32.1561 1393.4 32.1561C1380.64 32.1561 1369.82 29.0351 1360.94 22.793V0.113433C1370.51 6.07809 1381.33 9.06042 1393.4 9.06042C1405.61 9.06042 1416.5 6.07809 1426.07 0.113433V22.793ZM21.4058 373H-7.51584V273.127H21.4058V373ZM23.9026 240.044C23.9026 245.454 22.3074 249.546 19.117 252.32C15.9266 255.094 11.8346 256.481 6.84094 256.481C1.98599 256.481 -2.03669 255.094 -5.22708 252.32C-8.41748 249.546 -10.0127 245.454 -10.0127 240.044C-10.0127 234.773 -8.41748 230.75 -5.22708 227.976C-2.03669 225.201 1.98599 223.814 6.84094 223.814C11.6959 223.814 15.7186 225.201 18.909 227.976C22.2381 230.75 23.9026 234.773 23.9026 240.044ZM43.4124 227.351H98.3427C140.234 227.351 161.18 243.65 161.18 276.248C161.18 308.845 140.234 325.144 98.3427 325.144H74.6228V373H43.4124V227.351ZM99.7991 297.679C119.496 297.679 129.345 290.535 129.345 276.248C129.345 261.96 119.496 254.817 99.7991 254.817H74.6228V297.679H99.7991ZM272.292 227.351H303.502V373H272.292V314.324H206.958V373H175.748V227.351H206.958V286.027H272.292V227.351ZM325.073 328.681C321.883 319.665 320.288 310.163 320.288 300.176C320.288 290.188 321.883 280.687 325.073 271.67C328.402 262.654 333.188 254.609 339.43 247.534C345.811 240.46 353.995 234.842 363.982 230.681C373.969 226.519 385.205 224.439 397.689 224.439C410.173 224.439 421.409 226.519 431.397 230.681C441.384 234.842 449.499 240.46 455.741 247.534C462.121 254.609 466.907 262.654 470.097 271.67C473.427 280.687 475.091 290.188 475.091 300.176C475.091 310.163 473.427 319.665 470.097 328.681C466.907 337.698 462.121 345.743 455.741 352.817C449.499 359.892 441.384 365.51 431.397 369.671C421.409 373.832 410.173 375.913 397.689 375.913C385.205 375.913 373.969 373.832 363.982 369.671C353.995 365.51 345.811 359.892 339.43 352.817C333.188 345.743 328.402 337.698 325.073 328.681ZM431.188 333.675C439.095 324.797 443.048 313.631 443.048 300.176C443.048 286.721 439.095 275.554 431.188 266.677C423.282 257.799 412.115 253.36 397.689 253.36C383.124 253.36 371.889 257.799 363.982 266.677C356.075 275.554 352.122 286.721 352.122 300.176C352.122 313.631 356.075 324.797 363.982 333.675C371.889 342.553 383.124 346.991 397.689 346.991C412.115 346.991 423.282 342.553 431.188 333.675ZM523.24 373H492.029V227.351H521.367L589.198 322.439C588.781 316.475 588.573 309.816 588.573 302.465V227.351H619.784V373H590.446L522.615 277.912C523.032 283.877 523.24 290.535 523.24 297.887V373ZM644.684 227.351H747.262V254.817H675.894V285.819H741.02V313.076H675.894V345.535H748.51V373H644.684V227.351Z" fill="white"/>
</svg>
